#!OML:ASF F:\VICON\USERDATA\INSTALL\rory3\rory3.ASF
:FULLY-SPECIFIED
:DEGREES
51
root 4.61445067807411 17.801638769855167 10.959554064177452 -2.062536584562868 -0.8526477779481265 2.603992389225166
lfemur 6.324562275617177 -2.645283509958774 -27.001691664288977
ltibia 16.353287125003988
lfoot -12.863939528333011 1.966957873616781
ltoes 5.952058216281498
rfemur -30.89774126475097 6.590871352483581 18.35186095962061
rtibia 36.98716096464616
rfoot -7.925059041065039 -14.036007434446994
rtoes 4.264218628523999
lowerback nan -0.4076247208634831 -2.587010165503779
upperback 0.8701634929093671 -1.000094723629346 1.1061027726761945
thorax -5.586576514708816 -0.40014314265362605 2.9421547313968857
lowerneck -16.711379220438218 -3.2710083720883323 -2.2600715174065207
upperneck 20.036459911616546 -2.9171529333455095 0.5066753177401264
head 7.996577016766151 -1.4626151820492892 -0.08407050236842173
lclavicle 1.1118437177599278e-15 2.8877988329269125e-15
lhumerus -27.361837228948268 -3.4252483647852543 82.61524692965418
lradius 27.725964294977025
lwrist 6.60699232664738
lhand -26.79297631839237 24.603379036205297
lfingers nan
lthumb -0.7739152254800806 53.24378725475879
rclavicle -3.390872894862818e-15 -1.9920854449294755e-16
rhumerus -34.52037742926768 -24.104896716174082 -74.64728118171412
rradius 26.626836953776063
rwrist 2.9450335857720455
rhand -18.572827005763862 nan
rfingers nan
rthumb 8.012808987978678 -6.727072685985499
52
root 4.560760690131945 17.763918984409326 11.282100352494961 -1.6618359694909743 -0.1920486990673247 2.8525123852644794
lfemur 9.828678455582143 -1.6977524911575947 -28.090870132019667
ltibia 12.737907535077362
lfoot -11.27219937725821 -0.2866123372441254
ltoes 4.785223324202549
rfemur -28.999099489298835 8.161824661662335 15.955826924057288
rtibia 25.940898842270787
rfoot -11.050051481161834 -17.147160681407
rtoes 7.313136453736589
lowerback nan -0.6050269231655547 -3.945519299821509
upperback 0.7372459314807482 -1.4155596814986957 0.9910228034336703
thorax -5.160904384811511 -0.7013924235312431 2.9997903893592106
lowerneck -16.86312743154609 -3.3190085198232984 -2.2976852955017812
upperneck 20.187066657998322 -2.830863879469939 0.6117667663071952
head 7.9636562915950755 -1.4011773491208952 -0.03753869400216808
lclavicle 7.800429827273395e-16 1.52451493495111e-15
lhumerus -26.478530543894763 -4.0663959365584486 82.59314663646907
lradius 28.56560358221631
lwrist 6.71275021632795
lhand -26.082558898201356 26.18100311893596
lfingers nan
lthumb -0.07623433148892246 55.85858294013599
rclavicle 1.0662256149563975e-15 1.7999971740117693e-15
rhumerus -35.37803927058204 -25.76498947125541 -73.69258502682936
rradius 25.378878163420772
rwrist 3.2955502923155024
rhand -18.550157094926053 nan
rfingers nan
rthumb 7.859605470559014 -7.364766175173987
53
root 4.506780624133735 17.719502642818917 11.925493572729325 -1.4338756584170476 0.12895515446354766 2.933483503478316
lfemur 12.140473798536455 -2.8651924608347006 -27.137439065921054
ltibia 13.059356383159379
lfoot -10.77549984209498 -2.215123444065771
ltoes -0.6657755298049137
rfemur -28.868528102395185 8.456765401056355 16.418923193395614
rtibia 19.108594242939386
rfoot -12.072148143127542 -16.125776751333916
rtoes 4.476818788883891
lowerback nan -0.7798166928263219 -3.91263093541691
upperback 0.6000103675453925 -1.7236063242731592 1.279696927328463
thorax -5.3170072299309865 -0.8313781474124581 3.5525626846000917
lowerneck -16.728216949007113 -3.2369477439349335 -2.1418650288388315
upperneck 20.015483085771592 -2.8297870158258887 0.7249031154928525
head 7.961564520207726 -1.4008817618153675 -0.011541417158050793
lclavicle -2.42454311472776e-15 -4.579833894106228e-16
lhumerus -25.6862998290537 -4.3917924769417835 82.64779469523931
lradius 29.32398552034933
lwrist 6.942441134263173
lhand -25.120759010244647 26.250019173779226
lfingers nan
lthumb 2.167339071358494 58.02697774550377
rclavicle 9.435077984553029e-16 1.7933618370060505e-15
rhumerus -36.724989989060965 -26.943828988499458 -72.57201082526328
rradius 24.830264334050874
rwrist 3.840996433544107
rhand -18.619820746488198 nan
rfingers nan
rthumb 7.917637955966921 -7.536158282572257
54
root 4.436005831270346 17.697180277838914 12.323980838297004 -1.4264747000755602 0.32249339951273726 2.743722682334527
lfemur 13.544160647490969 -3.929593236265766 -26.820765501416613
ltibia 14.53528124584437
lfoot -10.036081274244074 -2.8852665724688022
ltoes -9.601850880810256
rfemur -29.988033139580864 4.773036418096748 18.649251284204055
rtibia 20.75873840860719
rfoot -10.144806149000072 -12.056816086957745
rtoes 2.221869183547625
lowerback nan -0.7983039294644245 -4.281151815699057
upperback 0.42644150028922717 -1.9122313181955906 1.3445224306054946
thorax -5.171433062302397 -0.937893136232245 3.9221384356956857
lowerneck -16.65572270829437 -3.199296046446309 -2.1920705992161498
upperneck 19.67018459507739 -2.7610941223876555 0.8175989436116491
head 7.544951461613317 -1.3864533472840646 0.015347534187901732
lclavicle 1.1931685595254076e-15 1.9706278386653403e-15
lhumerus -25.515399356351764 -4.466609188365847 82.81888926556122
lradius 30.519579291482824
lwrist 7.314719440272454
lhand -25.584278469748156 26.035692529477977
lfingers nan
lthumb 0.6684528749862584 55.07331833080167
rclavicle 1.4138263771192324e-15 1.8835000669970013e-15
rhumerus -37.53783651284351 -27.633084920704576 -72.04093640825869
rradius 24.090720728771238
rwrist 4.873129050962806
rhand -18.287891358564377 nan
rfingers nan
rthumb 8.02809103701023 -6.3036724117016005
